<?xml version="1.0" standalone="no"?>
<!DOCTYPE svg PUBLIC "-//W3C//DTD SVG 20010904//EN"
 "http://www.w3.org/TR/2001/REC-SVG-20010904/DTD/svg10.dtd">
<svg version="1.0" xmlns="http://www.w3.org/2000/svg"
 width="368.000000pt" height="137.000000pt" viewBox="0 0 368.000000 137.000000"
 preserveAspectRatio="xMidYMid meet">

<g transform="translate(0.000000,137.000000) scale(0.100000,-0.100000)"
fill="#000000" stroke="none">
<path d="M2058 1310 c-137 -41 -178 -183 -79 -273 37 -33 70 -47 193 -81 64
-18 88 -37 88 -70 0 -41 -37 -61 -108 -57 -27 1 -69 44 -74 73 -3 20 -9 21
-88 19 -47 -1 -86 -4 -88 -6 -8 -7 20 -84 41 -116 37 -55 95 -81 196 -87 105
-6 184 14 234 58 l34 29 16 -53 c9 -28 33 -71 52 -93 39 -46 143 -103 187
-103 15 0 28 -2 28 -5 0 -2 -13 -25 -29 -50 -36 -57 -56 -155 -46 -233 18
-149 97 -231 244 -252 144 -20 255 20 319 114 l32 48 0 -81 0 -81 235 0 235 0
0 75 0 75 -145 0 -145 0 0 225 0 225 -90 0 -90 0 0 -82 0 -82 -30 47 c-34 54
-104 102 -161 112 -21 4 -39 10 -38 13 0 4 21 23 47 43 129 98 194 291 146
432 -62 182 -296 249 -506 145 -75 -37 -184 -143 -212 -206 -10 -23 -22 -42
-26 -42 -3 0 -16 13 -27 29 -26 34 -85 63 -178 85 -38 10 -78 19 -87 22 -20 6
-48 31 -48 44 0 20 34 40 66 40 46 0 73 -15 85 -47 9 -24 11 -25 88 -22 44 2
82 7 85 10 3 3 1 22 -5 42 -14 52 -67 102 -122 116 -52 13 -188 13 -229 1z
m937 -57 c69 -22 146 -101 170 -172 56 -170 -56 -386 -249 -477 -293 -139
-565 57 -480 347 28 95 68 149 166 226 128 98 252 122 393 76z m-20 -789 c46
-22 66 -69 66 -154 0 -71 -16 -125 -44 -149 -27 -22 -99 -26 -135 -7 -46 24
-64 67 -65 150 -1 142 75 209 178 160z"/>
<path d="M2824 1111 c-127 -78 -73 -203 63 -146 43 18 63 14 63 -14 0 -28 -34
-45 -60 -31 -16 8 -26 7 -45 -7 -32 -24 -31 -38 4 -53 42 -17 86 -4 132 39 46
44 53 92 19 129 -25 26 -59 28 -124 6 -31 -11 -51 -13 -57 -7 -16 16 20 45 46
39 15 -4 32 2 50 16 26 20 27 22 9 35 -25 18 -64 16 -100 -6z"/>
<path d="M2643 983 c-13 -8 -23 -20 -23 -25 0 -5 23 -41 50 -80 28 -39 50 -77
50 -84 0 -17 -21 -23 -43 -12 -14 7 -25 4 -43 -13 -31 -29 -30 -34 11 -53 30
-15 38 -15 68 -2 94 39 101 96 25 208 -29 43 -57 77 -63 77 -5 0 -20 -7 -32
-16z"/>
<path d="M40 1016 l0 -296 95 0 95 0 0 120 c0 111 1 120 19 120 32 0 59 -32
114 -135 l53 -100 102 -3 c56 -1 102 0 102 3 0 13 -85 172 -107 202 -14 18
-33 35 -44 38 -28 9 -23 18 24 40 80 38 112 163 60 233 -49 66 -54 67 -294 70
l-219 3 0 -295z m334 161 c22 -16 24 -63 3 -84 -9 -9 -41 -17 -81 -20 l-66 -6
0 62 0 61 63 0 c37 0 71 -6 81 -13z"/>
<path d="M210 613 c-120 -13 -201 -99 -185 -194 13 -77 72 -122 212 -160 100
-27 123 -41 123 -79 0 -63 -98 -83 -151 -31 -16 16 -29 39 -29 52 0 20 -3 21
-52 15 -29 -3 -70 -6 -91 -6 -38 0 -39 0 -32 -33 11 -50 51 -113 87 -135 44
-27 157 -46 225 -38 74 9 148 42 178 80 l24 31 38 -37 c46 -45 89 -64 169 -73
131 -15 232 27 284 117 43 77 41 83 -39 107 -38 12 -73 21 -78 21 -5 0 -15
-16 -22 -35 -16 -45 -55 -75 -97 -75 -79 0 -113 41 -121 145 -10 118 28 183
112 192 43 5 48 4 85 -36 l40 -42 75 16 c41 10 75 19 75 22 0 14 -37 73 -64
101 -42 45 -77 62 -151 73 -114 16 -217 -13 -283 -80 -23 -24 -36 -32 -39 -23
-11 29 -55 71 -90 85 -41 16 -148 27 -203 20z m108 -125 c8 -7 18 -23 23 -37
9 -23 12 -24 74 -18 71 7 69 8 59 -55 -6 -35 -8 -36 -28 -23 -11 8 -70 27
-130 43 -60 17 -112 36 -117 43 -33 51 67 90 119 47z"/>
<path d="M2045 610 c-84 -12 -166 -67 -203 -135 -9 -16 -11 -4 -12 58 l0 77
-90 0 -90 0 0 -105 0 -105 -105 0 -105 0 0 105 0 105 -90 0 -90 0 0 -300 0
-300 90 0 90 0 0 120 0 120 105 0 105 0 0 -120 0 -120 90 0 90 0 0 78 0 77 19
-30 c52 -84 134 -126 254 -128 115 -3 170 15 233 77 61 60 84 121 84 226 0
127 -51 224 -141 270 -32 17 -146 42 -174 39 -5 -1 -33 -5 -60 -9z m136 -153
c39 -26 58 -71 58 -142 2 -112 -43 -175 -123 -175 -81 0 -126 61 -126 170 0
76 20 124 62 150 43 26 87 25 129 -3z"/>
</g>
</svg>
